HIERARCHY
ROOT Hips
{
	OFFSET 0.000000 0.000000 0.000000
	CHANNELS 6 Xposition Yposition Zposition Zrotation Yrotation Xrotation 
	JOINT LHipJoint
	{
		OFFSET 0.000000 0.000000 0.000000
		CHANNELS 3 Zrotation Yrotation Xrotation
		JOINT LeftUpLeg
		{
			OFFSET 1.363060 -1.794630 0.839290
			CHANNELS 3 Zrotation Yrotation Xrotation
			JOINT LeftLeg
			{
				OFFSET 2.448110 -6.726130 0.000000
				CHANNELS 3 Zrotation Yrotation Xrotation
				JOINT LeftFoot
				{
					OFFSET 2.562200 -7.039590 0.000000
					CHANNELS 3 Zrotation Yrotation Xrotation
					JOINT LeftToeBase
					{
						OFFSET 0.157640 -0.433110 2.322550
						CHANNELS 3 Zrotation Yrotation Xrotation
						End Site
						{
							OFFSET 0.000000 0.000000 0.000000
						}
					}
				}
			}
		}
	}
	JOINT RHipJoint
	{
		OFFSET 0.000000 0.000000 0.000000
		CHANNELS 3 Zrotation Yrotation Xrotation
		JOINT RightUpLeg
		{
			OFFSET -1.305520 -1.794630 0.839290
			CHANNELS 3 Zrotation Yrotation Xrotation
			JOINT RightLeg
			{
				OFFSET -2.542530 -6.985550 0.000000
				CHANNELS 3 Zrotation Yrotation Xrotation
				JOINT RightFoot
				{
					OFFSET -2.568260 -7.056230 0.000000
					CHANNELS 3 Zrotation Yrotation Xrotation
					JOINT RightToeBase
					{
						OFFSET -0.164730 -0.452590 2.363150
						CHANNELS 3 Zrotation Yrotation Xrotation
						End Site
						{
							OFFSET 0.000000 0.000000 0.000000
						}
					}
				}
			}
		}
	}
	JOINT LowerBack
	{
		OFFSET 0.000000 0.000000 0.000000
		CHANNELS 3 Zrotation Yrotation Xrotation
		JOINT Spine
		{
			OFFSET 0.028270 2.035590 -0.193380
			CHANNELS 3 Zrotation Yrotation Xrotation
			JOINT Spine1
			{
				OFFSET 0.056720 2.048850 -0.042750
				CHANNELS 3 Zrotation Yrotation Xrotation
				JOINT Neck
				{
					OFFSET 0.000000 0.000000 0.000000
					CHANNELS 3 Zrotation Yrotation Xrotation
					JOINT Neck1
					{
						OFFSET -0.054170 1.746240 0.172020
						CHANNELS 3 Zrotation Yrotation Xrotation
						JOINT Head
						{
							OFFSET 0.104070 1.761360 -0.123970
							CHANNELS 3 Zrotation Yrotation Xrotation
							End Site
							{
								OFFSET 0.000000 0.000000 0.000000
							}
						}
					}
				}
				JOINT LeftShoulder
				{
					OFFSET 0.000000 0.000000 0.000000
					CHANNELS 3 Zrotation Yrotation Xrotation
					JOINT LeftArm
					{
						OFFSET 3.362410 1.200890 -0.311210
						CHANNELS 3 Zrotation Yrotation Xrotation
						JOINT LeftForeArm
						{
							OFFSET 4.983000 -0.000000 -0.000000
							CHANNELS 3 Zrotation Yrotation Xrotation
							JOINT LeftHand
							{
								OFFSET 3.483560 -0.000000 -0.000000
								CHANNELS 3 Zrotation Yrotation Xrotation
								JOINT LeftFingerBase
								{
									OFFSET 0.000000 0.000000 0.000000
									CHANNELS 3 Zrotation Yrotation Xrotation
									JOINT LeftHandIndex1
									{
										OFFSET 0.715260 -0.000000 -0.000000
										CHANNELS 3 Zrotation Yrotation Xrotation
										End Site
										{
											OFFSET 0.000000 0.000000 0.000000
										}
									}
								}
								JOINT LThumb
								{
									OFFSET 0.000000 0.000000 0.000000
									CHANNELS 3 Zrotation Yrotation Xrotation
									End Site
									{
										OFFSET 0.000000 0.000000 0.000000
									}
								}
							}
						}
					}
				}
				JOINT RightShoulder
				{
					OFFSET 0.000000 0.000000 0.000000
					CHANNELS 3 Zrotation Yrotation Xrotation
					JOINT RightArm
					{
						OFFSET -3.136600 1.374050 -0.404650
						CHANNELS 3 Zrotation Yrotation Xrotation
						JOINT RightForeArm
						{
							OFFSET -5.241900 -0.000000 -0.000000
							CHANNELS 3 Zrotation Yrotation Xrotation
							JOINT RightHand
							{
								OFFSET -3.444170 -0.000000 -0.000000
								CHANNELS 3 Zrotation Yrotation Xrotation
								JOINT RightFingerBase
								{
									OFFSET 0.000000 0.000000 0.000000
									CHANNELS 3 Zrotation Yrotation Xrotation
									JOINT RightHandIndex1
									{
										OFFSET -0.622530 -0.000000 -0.000000
										CHANNELS 3 Zrotation Yrotation Xrotation
										End Site
										{
											OFFSET 0.000000 0.000000 0.000000
										}
									}
								}
								JOINT RThumb
								{
									OFFSET 0.000000 0.000000 0.000000
									CHANNELS 3 Zrotation Yrotation Xrotation
									End Site
									{
										OFFSET 0.000000 0.000000 0.000000
									}
								}
							}
						}
					}
				}
			}
		}
	}
}
MOTION
Frames: 8
Frame Time: 0.008333
1.379385 17.738684 -35.023357 0.464240 3.490911 4.784561 0.699147 0.269793 0.141170 -22.100404 -9.301078 -13.928483 1.853803 10.402309 29.569781 1.235041 -4.746610 -7.963027 0.094800 1.985700 5.466100 -2.593332 -0.534974 -1.035601 24.868246 1.828836 -10.442412 -2.908371 -11.040683 32.684026 0.502615 -12.242171 -23.702851 -0.562900 -4.805600 13.354900 2.140146 -0.486972 5.066041 0.053247 -0.438536 -1.529367 -0.488724 -0.459413 -0.747014 -8.905068 -11.697623 -5.792854 3.062203 -14.968988 11.647666 0.255200 -7.503100 7.172600 0.965724 4.392504 -0.529617 -81.749601 8.559108 21.287689 23.513655 -35.705701 -7.590351 0.441947 -0.226909 8.888722 1.167904 35.784743 0.409300 -7.125000 0.000000 0.000000 -38.942800 61.554400 -17.108800 -1.118816 -4.297222 -1.605446 75.250805 5.923089 14.701246 -10.820684 20.629931 -1.826418 1.130394 0.010685 -16.564279 -6.741259 25.970847 -3.475400 7.125000 0.000000 0.000000 13.245000 -4.137400 12.602700 
1.393471 17.730722 -35.024276 0.499557 3.585791 4.736550 0.693817 0.266635 0.143649 -22.180769 -9.235926 -14.011284 1.896995 10.468761 29.775926 1.289794 -5.009180 -8.183211 0.093900 1.976100 5.439500 -2.588138 -0.531972 -1.023485 24.746986 1.850185 -10.724861 -3.021166 -11.217787 33.275730 0.435967 -12.102914 -24.047139 -0.573800 -4.850800 13.483600 1.870897 -0.359628 5.203388 0.071775 -0.278851 -1.556074 -0.264520 -0.379418 -0.939972 -8.931803 -11.763741 -5.331477 3.136104 -15.113666 11.377110 0.298900 -7.578500 6.977100 0.991625 4.376701 -0.519148 -81.587818 8.686916 21.697245 23.532462 -35.735704 -7.618301 0.438339 -0.220872 8.816275 0.953983 35.125540 0.281900 -7.125000 0.000000 0.000000 -38.381900 60.984200 -16.297700 -1.101449 -4.298531 -1.605420 75.051643 5.536832 14.161021 -10.611381 20.314644 -1.774740 1.095516 -0.084786 -15.412810 -4.691691 25.800016 -2.527600 7.125000 0.000000 0.000000 14.492700 -4.432200 13.786700 
1.418886 17.695406 -35.017539 0.564345 3.411790 4.581171 0.689999 0.270900 0.145104 -22.371258 -9.171240 -13.814818 1.901523 10.471949 29.790581 1.301236 -5.062392 -8.251896 0.097600 2.014600 5.546000 -2.579496 -0.533281 -1.028832 24.503756 1.525694 -11.104007 -3.181881 -11.452845 34.069228 0.432171 -11.973506 -23.865222 -0.393700 -4.028600 11.157200 1.634667 -0.186182 5.158392 0.066109 -0.060606 -1.506126 -0.122634 -0.272503 -0.786980 -8.910291 -11.910277 -5.311225 3.184857 -15.322255 11.437453 0.289300 -7.669700 6.997300 0.998250 4.392578 -0.514659 -81.440314 8.915575 21.924347 23.799952 -36.030236 -7.762565 0.443867 -0.213458 8.284107 0.348646 36.404330 -0.071600 -7.125000 0.000000 0.000000 -40.452300 61.814500 -18.145700 -1.085664 -4.309211 -1.597777 74.831028 5.440111 13.440450 -10.208904 19.679072 -1.640459 1.059018 -0.207980 -13.675099 -2.463771 25.805979 -1.522700 7.125000 0.000000 0.000000 15.839800 -4.529100 15.141800 
1.440526 17.691833 -35.014068 0.776019 3.429766 4.543770 0.693632 0.268656 0.144402 -22.681100 -8.914950 -13.838981 1.909729 10.487801 29.836971 1.314024 -5.063740 -8.458689 0.126100 2.289500 6.306400 -2.556826 -0.527059 -1.019025 24.088511 1.506700 -11.439234 -3.324909 -11.655050 34.760742 0.318088 -11.525751 -24.084328 -0.466700 -4.381600 12.152700 1.446344 -0.265769 5.258692 0.017444 -0.169407 -1.506023 -0.181908 -0.326589 -0.839481 -8.954236 -11.839848 -5.274151 3.379814 -15.236011 11.277748 0.383100 -7.621500 6.947100 0.982367 4.391323 -0.519575 -81.156498 9.198351 21.891467 23.882454 -36.116936 -7.811204 0.443943 -0.210788 8.116272 0.384924 36.334400 -0.049500 -7.125000 0.000000 0.000000 -40.330900 61.769700 -18.038400 -1.090144 -4.300622 -1.587351 74.818422 5.540826 13.396773 -9.858120 19.101625 -1.518610 1.018010 -0.327123 -12.441288 -0.228640 25.983311 -0.513000 7.125000 0.000000 0.000000 17.175400 -4.431000 16.575000 
1.462267 17.675808 -35.006719 1.124916 3.246950 4.438243 0.698498 0.271604 0.148169 -23.166859 -8.670894 -13.710901 1.917368 10.486697 29.842027 1.345728 -5.294381 -8.455254 0.118500 2.219300 6.112000 -2.534822 -0.519602 -1.016693 23.527890 1.450246 -11.724032 -3.495505 -11.885256 35.563885 0.276130 -11.265995 -24.007970 -0.390300 -4.011400 11.108700 0.970546 -0.105839 5.289661 -0.042531 0.025659 -1.481121 -0.074081 -0.234452 -0.749639 -8.940339 -11.834062 -5.692947 3.324065 -15.178436 11.788743 0.322300 -7.577200 7.232500 0.970795 4.412925 -0.534699 -80.874240 9.286254 22.256609 23.949614 -36.195432 -7.853517 0.443052 -0.209448 7.733264 0.818664 36.416457 0.210000 -7.125000 0.000000 0.000000 -40.015800 61.946300 -18.038700 -1.090176 -4.289890 -1.592105 74.739648 5.379844 13.303502 -9.615817 18.686910 -1.425819 0.997263 -0.398054 -11.313978 0.819188 26.199756 -0.034600 7.125000 0.000000 0.000000 17.790000 -4.243000 17.297100 
1.476965 17.661620 -35.004168 1.182477 3.263421 4.262957 0.689876 0.269522 0.156168 -23.289795 -8.118280 -13.699176 1.925647 10.485966 29.837648 1.460823 -5.715876 -9.121702 0.045200 1.372400 3.774100 -2.515339 -0.513118 -1.012915 23.327159 1.452650 -11.907058 -3.650654 -12.096861 36.302651 0.171665 -10.888559 -24.271819 -0.424300 -4.180800 11.585900 0.878074 -0.090233 5.517418 -0.076452 0.047374 -1.471411 -0.135431 -0.223152 -0.826257 -8.739579 -12.072962 -5.820394 3.081835 -15.509264 11.875374 0.149600 -7.733900 7.277400 0.968834 4.402347 -0.544892 -80.548440 9.341965 22.381961 23.917174 -36.156310 -7.831286 0.443627 -0.205245 7.581890 0.644514 36.431525 0.106500 -7.125000 0.000000 0.000000 -40.196600 61.910500 -18.101100 -1.077104 -4.289695 -1.591298 74.799266 5.324443 13.049000 -9.366584 18.243204 -1.339471 0.970704 -0.449000 -10.037484 1.414380 26.099638 0.243200 7.125000 0.000000 0.000000 18.147200 -4.348000 17.646300 
1.491153 17.646208 -34.994267 1.366460 3.275565 4.136008 0.683872 0.273691 0.158124 -23.556825 -8.141716 -13.464285 1.912241 10.455608 29.746605 1.475817 -5.836498 -9.105461 0.080900 1.835000 5.050000 -2.504174 -0.508450 -1.012778 22.952937 1.337688 -12.209863 -3.833202 -12.329279 37.129973 0.086469 -10.400048 -24.189372 -0.412300 -4.121800 11.419500 0.436083 -0.038794 5.438884 -0.075502 0.095057 -1.436546 0.140196 -0.204279 -0.727315 -9.019637 -11.974003 -5.521636 3.506109 -15.388833 11.625799 0.389700 -7.672600 7.157700 0.970432 4.420942 -0.529527 -80.429096 9.471856 22.394798 23.839768 -36.092778 -7.786437 0.443798 -0.205024 7.602446 0.662892 36.707679 0.118100 -7.125000 0.000000 0.000000 -40.516000 62.125300 -18.477200 -1.079133 -4.296778 -1.571935 74.751896 5.144788 13.152528 -9.158996 17.877340 -1.245874 0.960552 -0.520147 -9.006557 2.356346 26.700758 0.687100 7.125000 0.000000 0.000000 18.673500 -3.775100 18.428600 
1.507994 17.634572 -34.987122 1.611704 3.094884 3.970259 0.686082 0.280052 0.169416 -23.930914 -7.799863 -13.294826 1.903207 10.430288 29.676558 1.494631 -5.919207 -9.215197 0.077500 1.795300 4.940400 -2.482511 -0.505129 -1.006688 22.515525 1.212600 -12.482166 -4.020144 -12.560210 37.964592 0.050302 -10.081802 -23.979620 -0.427100 -4.194000 11.623200 0.119128 -0.027129 5.577434 -0.127075 0.099217 -1.449475 0.152928 -0.203884 -0.820904 -8.992610 -12.039654 -5.680248 3.352821 -15.456937 11.917505 0.300800 -7.703700 7.303500 0.960382 4.425401 -0.540882 -80.266403 9.746081 22.017511 23.687666 -35.929978 -7.701345 0.441590 -0.204026 7.660244 0.717145 36.107729 0.149800 -7.125000 0.000000 0.000000 -39.734700 61.680600 -17.639100 -1.082046 -4.290494 -1.581136 74.780409 4.752821 13.802495 -9.111718 17.816862 -1.262363 0.905341 -0.559651 -8.637175 3.643618 25.941960 1.273800 7.125000 0.000000 0.000000 19.462400 -4.530900 19.019100 
